<?xml version="1.0" standalone="no"?><svg xmlns="http://www.w3.org/2000/svg" viewBox="0 0 1440 320"><path fill="#6366F1" fill-opacity="0.5" d="M0,160L26.7,154.7C53.3,149,107,139,160,149.3C213.3,160,267,192,320,218.7C373.3,245,427,267,480,256C533.3,245,587,203,640,192C693.3,181,747,203,800,202.7C853.3,203,907,181,960,165.3C1013.3,149,1067,139,1120,138.7C1173.3,139,1227,149,1280,170.7C1333.3,192,1387,224,1413,240L1440,256L1440,320L1413.3,320C1386.7,320,1333,320,1280,320C1226.7,320,1173,320,1120,320C1066.7,320,1013,320,960,320C906.7,320,853,320,800,320C746.7,320,693,320,640,320C586.7,320,533,320,480,320C426.7,320,373,320,320,320C266.7,320,213,320,160,320C106.7,320,53,320,27,320L0,320Z"></path></svg>